<?xml version="1.0" encoding="iso-8859-1"?>
<!-- Generator: Adobe Illustrator 19.0.0, SVG Export Plug-In . SVG Version: 6.00 Build 0)  -->
<svg version="1.1" id="Layer_1" xmlns="http://www.w3.org/2000/svg" xmlns:xlink="http://www.w3.org/1999/xlink" x="0px" y="0px"
	 viewBox="0 0 512.001 512.001" style="enable-background:new 0 0 512.001 512.001;" xml:space="preserve">
<path style="fill:#EE8700;" d="M429.853,133.014c-4.272,0-8.544-1.631-11.804-4.892l-23.609-23.608
	c-6.516-6.516-17.109-6.506-23.614,0l-15.74,15.74c-6.521,6.521-17.087,6.521-23.609,0c-6.521-6.516-6.521-17.092,0-23.609
	l15.74-15.74c19.516-19.527,51.305-19.538,70.832,0l23.609,23.609c6.521,6.516,6.521,17.092,0,23.609
	C438.397,131.385,434.125,133.014,429.853,133.014z"/>
<g>
	<path style="fill:#FFDA44;" d="M495.305,195.732c-4.272,0-8.544-1.631-11.804-4.892l-11.13-11.13
		c-6.521-6.521-6.521-17.092,0-23.609c6.521-6.521,17.097-6.521,23.609,0l11.13,11.13c6.521,6.521,6.521,17.092,0,23.609
		C503.848,194.101,499.576,195.732,495.305,195.732z"/>
	<path style="fill:#FFDA44;" d="M417.392,195.732c4.272,0,8.544-1.631,11.804-4.892l11.13-11.13c6.521-6.521,6.521-17.092,0-23.609
		c-6.521-6.521-17.097-6.521-23.609,0l-11.13,11.13c-6.521,6.521-6.521,17.092,0,23.609
		C408.848,194.101,413.12,195.732,417.392,195.732z"/>
	<path style="fill:#FFDA44;" d="M495.305,84.428c-4.272,0-8.544,1.631-11.804,4.892l-11.13,11.13
		c-6.521,6.521-6.521,17.092,0,23.609c6.521,6.521,17.097,6.521,23.609,0l11.13-11.13c6.521-6.521,6.521-17.092,0-23.609
		C503.848,86.058,499.576,84.428,495.305,84.428z"/>
</g>
<path style="fill:#5C5C5C;" d="M321.848,217.416c-0.869,0-1.75-0.07-2.625-0.207c-5.283-0.843-9.843-4.163-12.261-8.934
	c-6.989-13.772-15.957-26.174-26.642-36.864c-10.69-10.685-23.092-19.652-36.864-26.642c-4.772-2.419-8.093-6.979-8.934-12.261
	c-0.841-5.283,0.903-10.646,4.685-14.429l52.919-52.919c6.521-6.521,17.087-6.521,23.609,0l70.837,70.837
	c6.521,6.516,6.521,17.092,0,23.609l-52.919,52.919C330.501,215.683,326.239,217.416,321.848,217.416z"/>
<path style="fill:#3E3D42;" d="M306.962,208.276c2.419,4.772,6.979,8.093,12.261,8.934c0.875,0.136,1.755,0.207,2.625,0.207
	c4.391,0,8.652-1.734,11.804-4.892l52.919-52.919c6.521-6.516,6.521-17.092,0-23.609l-35.418-35.418l-70.832,70.832
	C291.005,182.102,299.973,194.504,306.962,208.276z"/>
<path style="fill:#787680;" d="M178,451.732c-47.625,0-92.343-18.494-125.924-52.076c-69.435-69.435-69.435-182.419,0-251.853
	C85.658,114.221,130.376,95.727,178,95.727s92.348,18.494,125.93,52.076s52.076,78.305,52.076,125.93s-18.494,92.343-52.076,125.924
	S225.625,451.732,178,451.732z"/>
<path style="fill:#57565C;" d="M178,451.732c47.625,0,92.348-18.494,125.93-52.076s52.076-78.299,52.076-125.924
	s-18.494-92.348-52.076-125.93L52.076,399.656C85.658,433.238,130.376,451.732,178,451.732z"/>
<path style="fill:#ACABB1;" d="M178.087,384.949c-29.696,0-57.636-11.587-78.674-32.63c-6.521-6.516-6.521-17.092,0-23.609
	c6.521-6.521,17.087-6.521,23.609,0c14.733,14.733,34.294,22.847,55.066,22.847s40.331-8.114,55.066-22.847
	c6.521-6.521,17.087-6.521,23.609,0c6.521,6.516,6.521,17.092,0,23.609C235.723,373.362,207.783,384.949,178.087,384.949z"/>
<g>
</g>
<g>
</g>
<g>
</g>
<g>
</g>
<g>
</g>
<g>
</g>
<g>
</g>
<g>
</g>
<g>
</g>
<g>
</g>
<g>
</g>
<g>
</g>
<g>
</g>
<g>
</g>
<g>
</g>
</svg>
